<svg xmlns="http://www.w3.org/2000/svg" width="1024" height="440" viewBox="0 0 1024 440">
<rect width="100%" height="100%" fill="#000"/>
<g id="logo" fill-rule="evenodd" clip-rule="evenodd">
  <path d="M 297.0 164.0 L 297.0 166.0 L 301.0 169.0 L 318.0 172.0 L 325.0 175.0 L 328.0 175.0 L 335.0 178.0 L 338.0 178.0 L 356.0 184.0 L 362.0 184.0 L 363.0 185.0 L 369.0 185.0 L 370.0 186.0 L 394.0 186.0 L 396.0 185.0 L 397.0 183.0 L 396.0 174.0 L 394.0 168.0 L 394.0 163.0 L 388.0 152.0 L 388.0 150.0 L 385.0 144.0 L 377.0 133.0 L 371.0 130.0 L 347.0 130.0 L 343.0 132.0 L 340.0 132.0 L 331.0 135.0 L 312.0 146.0 L 300.0 158.0 Z" fill="#265fd5"/>
  <path d="M 302.0 179.0 L 302.0 187.0 L 308.0 199.0 L 324.0 216.0 L 328.0 218.0 L 334.0 223.0 L 348.0 230.0 L 351.0 230.0 L 352.0 231.0 L 355.0 231.0 L 364.0 234.0 L 385.0 234.0 L 391.0 230.0 L 396.0 216.0 L 397.0 197.0 L 395.0 195.0 L 374.0 195.0 L 371.0 196.0 L 370.0 195.0 L 366.0 195.0 L 365.0 194.0 L 361.0 194.0 L 360.0 193.0 L 341.0 190.0 L 307.0 178.0 L 303.0 178.0 Z" fill="#2762d5"/>
  <path d="M 363.0 118.0 L 348.0 106.0 L 331.0 97.0 L 328.0 97.0 L 320.0 94.0 L 309.0 94.0 L 301.0 98.0 L 285.0 113.0 L 280.0 124.0 L 276.0 130.0 L 274.0 137.0 L 274.0 141.0 L 272.0 146.0 L 272.0 168.0 L 273.0 170.0 L 275.0 171.0 L 283.0 171.0 L 285.0 169.0 L 289.0 160.0 L 295.0 152.0 L 307.0 140.0 L 317.0 133.0 L 341.0 123.0 L 363.0 121.0 Z" fill="#1f46c1"/>
  <path d="M 281.0 196.0 L 283.0 205.0 L 286.0 212.0 L 286.0 215.0 L 294.0 230.0 L 301.0 240.0 L 320.0 258.0 L 332.0 264.0 L 334.0 266.0 L 349.0 271.0 L 357.0 271.0 L 362.0 268.0 L 372.0 259.0 L 381.0 248.0 L 381.0 244.0 L 370.0 244.0 L 369.0 243.0 L 353.0 241.0 L 329.0 230.0 L 306.0 210.0 L 298.0 199.0 L 293.0 188.0 L 290.0 188.0 Z" fill="#2761d2"/>
  <path d="M 256.0 202.0 L 256.0 220.0 L 257.0 221.0 L 261.0 240.0 L 266.0 249.0 L 268.0 255.0 L 287.0 279.0 L 294.0 283.0 L 301.0 289.0 L 318.0 289.0 L 325.0 285.0 L 333.0 284.0 L 341.0 280.0 L 341.0 277.0 L 339.0 277.0 L 334.0 274.0 L 323.0 270.0 L 310.0 261.0 L 296.0 247.0 L 284.0 230.0 L 272.0 200.0 L 270.0 199.0 L 260.0 199.0 Z" fill="#2455c9"/>
  <path d="M 296.0 89.0 L 267.0 89.0 L 262.0 92.0 L 256.0 93.0 L 248.0 97.0 L 244.0 103.0 L 244.0 105.0 L 239.0 116.0 L 239.0 121.0 L 238.0 122.0 L 238.0 127.0 L 237.0 128.0 L 237.0 150.0 L 238.0 151.0 L 241.0 166.0 L 246.0 176.0 L 249.0 180.0 L 252.0 182.0 L 263.0 179.0 L 264.0 177.0 L 264.0 170.0 L 263.0 169.0 L 263.0 162.0 L 262.0 161.0 L 263.0 158.0 L 263.0 143.0 L 264.0 142.0 L 266.0 131.0 L 269.0 125.0 L 269.0 123.0 L 278.0 108.0 L 296.0 92.0 Z" fill="#1e42bd"/>
  <path d="M 233.0 104.0 L 227.0 109.0 L 220.0 113.0 L 209.0 124.0 L 205.0 130.0 L 203.0 135.0 L 203.0 150.0 L 204.0 151.0 L 207.0 166.0 L 211.0 172.0 L 216.0 183.0 L 229.0 197.0 L 236.0 201.0 L 240.0 201.0 L 244.0 198.0 L 246.0 194.0 L 246.0 191.0 L 233.0 171.0 L 233.0 168.0 L 232.0 167.0 L 232.0 164.0 L 231.0 163.0 L 231.0 160.0 L 229.0 155.0 L 229.0 151.0 L 228.0 150.0 L 228.0 126.0 L 229.0 125.0 L 229.0 122.0 L 231.0 118.0 L 232.0 112.0 L 235.0 107.0 L 235.0 104.0 Z" fill="#2458cd"/>
  <path d="M 194.0 149.0 L 190.0 156.0 L 189.0 163.0 L 185.0 169.0 L 185.0 201.0 L 204.0 220.0 L 208.0 221.0 L 222.0 228.0 L 226.0 228.0 L 232.0 221.0 L 233.0 217.0 L 234.0 216.0 L 234.0 212.0 L 232.0 210.0 L 225.0 206.0 L 206.0 185.0 L 205.0 181.0 L 202.0 176.0 L 202.0 174.0 L 198.0 166.0 L 198.0 161.0 L 197.0 160.0 L 197.0 154.0 L 196.0 153.0 L 196.0 149.0 Z" fill="#2459cc"/>
  <path d="M 243.0 219.0 L 239.0 224.0 L 237.0 228.0 L 237.0 230.0 L 234.0 236.0 L 234.0 240.0 L 233.0 241.0 L 233.0 265.0 L 234.0 266.0 L 234.0 270.0 L 235.0 272.0 L 238.0 275.0 L 252.0 282.0 L 255.0 282.0 L 256.0 283.0 L 259.0 283.0 L 260.0 284.0 L 267.0 285.0 L 274.0 289.0 L 282.0 289.0 L 283.0 288.0 L 283.0 286.0 L 269.0 272.0 L 269.0 271.0 L 257.0 254.0 L 255.0 250.0 L 255.0 248.0 L 252.0 243.0 L 252.0 240.0 L 250.0 236.0 L 250.0 233.0 L 249.0 232.0 L 249.0 229.0 L 248.0 228.0 L 247.0 222.0 L 245.0 219.0 Z" fill="#2251c5"/>
  <path d="M 190.0 219.0 L 190.0 223.0 L 191.0 224.0 L 191.0 227.0 L 192.0 228.0 L 192.0 229.0 L 193.0 230.0 L 194.0 233.0 L 196.0 235.0 L 196.0 236.0 L 197.0 237.0 L 197.0 238.0 L 198.0 239.0 L 198.0 240.0 L 199.0 241.0 L 199.0 242.0 L 200.0 243.0 L 201.0 246.0 L 203.0 248.0 L 203.0 249.0 L 207.0 253.0 L 207.0 254.0 L 212.0 259.0 L 213.0 259.0 L 220.0 266.0 L 224.0 266.0 L 224.0 241.0 L 223.0 240.0 L 222.0 237.0 L 221.0 237.0 L 220.0 236.0 L 219.0 236.0 L 216.0 234.0 L 214.0 234.0 L 211.0 232.0 L 209.0 232.0 L 208.0 231.0 L 207.0 231.0 L 205.0 229.0 L 204.0 229.0 L 200.0 225.0 L 199.0 225.0 L 196.0 222.0 L 195.0 222.0 L 192.0 219.0 Z" fill="#2661cf"/>
</g>
<text x="430" y="246" fill="#e8edfb" font-family="'Trebuchet MS', 'Segoe UI', sans-serif" font-size="146" font-weight="700" letter-spacing="1.0">Roly</text>
</svg>
