<svg xmlns="http://www.w3.org/2000/svg" width="680" height="680" viewBox="679.665 300.188 680 680">
  <g id="logo-mark">
    <path transform="translate(0,0)" fill="rgb(47,91,184)" d="M 1224.55 454.39 C 1247.98 452.133 1269.68 455.413 1292.23 461.252 C 1329.28 509.455 1347.9 569.749 1351.09 629.907 C 1317.22 645.923 1214.31 628.136 1176.23 619.739 C 1146.15 613.084 1116.19 602.66 1086.47 594.202 C 1070.89 589.767 1049.02 587.522 1035.47 581.209 C 1028.39 569.826 1043.13 554.932 1050.2 546.243 C 1094.14 492.242 1155.53 461.162 1224.55 454.39 z"/>
    <path transform="translate(0,0)" fill="rgb(33,51,151)" d="M 1093.31 333.16 C 1094.51 333.065 1095.72 333.017 1096.93 333.015 C 1107.93 332.97 1126.72 338.852 1137.01 342.669 C 1191.55 362.891 1226.8 387.522 1266.88 428.397 C 1251.3 427.447 1239.47 426.711 1223.73 427.641 C 1158.56 431.489 1085.72 466.753 1042.67 516.583 C 1031.51 528.257 1027.92 534.866 1017.83 547.676 C 1007.78 560.438 998.465 589.77 987.458 597.189 C 982.635 600.44 966.751 604.981 959.704 602.346 C 952.692 596.399 952.324 574.094 951.979 564.914 C 949.802 516.939 960.719 469.276 983.56 427.032 C 1008.42 381.885 1043.19 347.735 1093.31 333.16 z"/>
    <path transform="translate(0,0)" fill="rgb(47,91,184)" d="M 1045.97 608.828 C 1090.31 616.321 1132.41 637.923 1176.6 648.771 C 1238.5 663.965 1288.33 669.42 1351.42 659.667 C 1350.39 698.067 1343.29 729.971 1329.05 765.554 C 1326.5 771.652 1324.02 779.487 1318.09 782.567 C 1296.86 793.592 1244.63 788.587 1222.48 783.129 C 1155.29 766.568 1096.57 724.592 1059.7 666.119 C 1049.47 649.896 1041.41 627.889 1045.97 608.828 z"/>
    <path transform="translate(0,0)" fill="rgb(33,51,151)" d="M 1017.53 643.687 C 1020.46 645.27 1026.55 660.396 1028.94 664.879 C 1045.47 695.83 1069.03 725.725 1096.49 747.986 C 1140.74 783.842 1195.8 811.183 1253.26 815.522 C 1270.58 816.831 1286.96 815.614 1304.13 813.994 C 1291.52 838.114 1266.07 865.403 1246.41 883.646 C 1234.8 893.042 1223.26 902.847 1210.33 910.313 C 1104.97 900.914 999.341 771.95 982.556 671.664 C 988.638 664.779 1009.23 649.98 1017.53 643.687 z"/>
    <path transform="translate(0,0)" fill="rgb(33,51,151)" d="M 1000.4 321.368 C 1013.95 320.301 1032.29 321.938 1046.42 322.426 C 1034.04 331.614 1022.17 337.478 1010.2 348.134 C 948.026 403.455 917.609 482.725 923.928 565.384 C 924.282 582.569 931.021 601.623 929.663 618.451 C 929.29 623.072 900.595 635.21 895.319 637.681 C 883.901 636.687 880.046 628.081 874.492 619.113 C 830.016 547.298 836.186 454.923 869.243 379.972 C 873.405 370.534 878.338 358.886 884.025 350.429 C 920.271 333.165 960.697 324.868 1000.4 321.368 z"/>
    <path transform="translate(0,0)" fill="rgb(33,51,151)" d="M 952.483 681.374 C 954.131 681.051 954.825 681.394 956.633 681.674 C 960.365 684.895 966.747 706.213 968.854 712.397 C 1003.25 813.346 1071.8 891.003 1171.95 930.088 C 1155.08 938.554 1132.43 945.099 1114.21 949.949 C 1088.64 955.79 1062.53 960.075 1036.23 959.946 C 1018.64 950.137 1001.4 932.816 988.395 917.042 C 942.295 861.14 914.417 790.192 906.262 718.415 C 903.234 691.755 901.899 688.65 930.886 684.92 C 937.313 684.093 945.777 682.473 952.483 681.374 z"/>
    <path transform="translate(0,0)" fill="rgb(33,51,151)" d="M 847.834 370.984 L 848.523 372.351 C 844.797 379.299 841.301 386.367 838.039 393.545 C 803.494 469.441 803.369 549.426 843.188 624.427 C 845.379 631.941 874.794 664.622 874.429 667.812 C 868.497 719.655 836.886 695.781 821.644 684.813 C 760.724 641.311 732.233 557.416 745.397 485.374 C 747.281 475.059 754.497 463.884 760.089 455.212 C 782.896 419.846 813.012 393.845 847.834 370.984 z"/>
    <path transform="translate(0,0)" fill="rgb(15,19,86)" d="M 718.563 529.655 C 719.859 534.239 719.216 546.136 719.644 551.57 C 724.128 608.533 749.984 666.948 796.581 701.621 C 803.555 706.847 810.891 711.572 818.533 715.762 C 826.532 720.081 845.128 727.511 850.265 733.322 C 852.6 741.022 839.323 772.506 835.324 781.206 C 833.888 784.331 832.726 783.877 829.835 784.427 C 788.447 779.985 744.901 752.883 715.745 724.169 C 710.752 719.074 702.693 711.035 700.956 704.007 C 687.909 651.229 697.421 577.204 718.563 529.655 z"/>
    <path transform="translate(0,0)" fill="rgb(15,19,86)" d="M 882.3 744.613 C 884.837 746.971 888.432 764.915 889.345 769.103 C 905.542 843.449 937.742 901.4 988.233 957.453 C 980.651 956.849 972.252 955.156 964.684 953.814 C 939.949 948.464 879.758 929.138 862.385 911.811 C 855.371 886.983 853.316 846.506 854.984 820.79 C 856.331 800.031 865.948 758.621 882.3 744.613 z"/>
    <path transform="translate(0,0)" fill="rgb(15,19,86)" d="M 715.396 753.586 C 747.812 782.881 786.633 800.635 829.193 809.025 C 828.802 820.823 827.407 832.183 827.531 844.204 C 827.727 863.214 830.371 881.843 831.121 900.726 L 830.541 901.334 C 826.32 900.366 814.633 890.242 810.565 886.81 C 770.005 852.595 732.482 804.102 715.396 753.586 z"/>
  </g>
</svg>
