<svg xmlns="http://www.w3.org/2000/svg" width="760" height="272" viewBox="0 0 760 272">
  <g id="logo" transform="matrix(0.545121 0 0 0.545121 -200.177759 -733.515040)">
    <path transform="translate(0,0)" fill="rgb(47,91,184)" d="M 717.045 1428.49 C 727.51 1427.7 746.469 1427.58 753.813 1435.12 C 777.947 1459.88 795.865 1506.91 797.528 1540.26 C 760.298 1547.27 723.516 1540.24 687.37 1531.12 C 664.589 1524.89 642.305 1516.44 619.343 1510.77 C 612.035 1508.97 605.158 1507.23 598.163 1504.36 C 591.609 1496.82 604.215 1484.72 609.175 1479.12 C 636.803 1447.93 675.76 1431.03 717.045 1428.49 z"/>
    <path transform="translate(0,0)" fill="rgb(47,91,184)" d="M 604.356 1521.37 C 623.64 1525 640.601 1533.83 658.924 1540.34 C 710.377 1558.63 743.549 1564.26 797.882 1558.66 C 796.925 1583.57 793.573 1603.88 785.044 1627.49 C 784.051 1630.39 782.413 1633.77 781.125 1636.63 C 730.297 1650.09 662.079 1620.55 629.492 1581.54 C 613.34 1562.21 602.891 1547.22 604.356 1521.37 z"/>
    <path transform="translate(0,0)" fill="rgb(33,51,151)" d="M 626.049 1356.16 C 627.369 1356.14 628.688 1356.18 630.005 1356.27 C 664.408 1358.85 711.355 1387.52 734.22 1413 C 679.954 1412.33 643.098 1426 603.34 1463.77 C 596.111 1471.24 589.483 1478.94 583.361 1487.51 C 579.385 1493.08 574.184 1509.55 568.929 1511.97 C 563.592 1514.44 555.929 1516.85 549.964 1514.86 C 549.016 1513.81 547.986 1512.55 547.68 1511.09 C 541.21 1480.34 548.651 1440.26 562.874 1413.14 C 575.549 1388.97 600.517 1364.09 626.049 1356.16 z"/>
    <path transform="translate(0,0)" fill="rgb(33,51,151)" d="M 586.471 1542.9 C 588.991 1545.48 597.536 1564.09 600.569 1568.97 C 630.126 1616.55 683.034 1651.2 739.314 1655.5 C 749.656 1656.3 761.275 1655.36 771.6 1654.87 C 760.474 1672.24 749.858 1684.68 734.837 1698.56 C 727.296 1704.71 722.332 1709.01 713.73 1713.64 C 710.658 1713.51 707.591 1713.29 704.53 1712.99 C 669.596 1709.27 628.212 1679.98 607.111 1652.89 C 588.737 1630.61 577.377 1607.2 568.374 1580.07 C 559.899 1554.53 565.335 1556.9 586.471 1542.9 z"/>
    <path transform="translate(0,0)" fill="rgb(33,51,151)" d="M 536.697 1566.34 C 540.303 1565.79 541.601 1565.34 545.186 1566.23 C 547.605 1569.12 553.348 1586.44 555.006 1591.04 C 580.715 1662.38 621.872 1701.45 692.548 1726.81 C 680.239 1732.99 671.405 1736.23 658.226 1740.23 C 646.726 1743.1 619.151 1749.18 607.946 1747.59 C 592.903 1745.45 564.781 1715.96 555.648 1704.77 C 527.482 1670.27 507.539 1616.91 512.34 1572.11 C 519.796 1569.17 528.84 1567.63 536.697 1566.34 z"/>
    <path transform="translate(0,0)" fill="rgb(33,51,151)" d="M 560.699 1347.4 C 571.375 1345.6 591.667 1347.45 602.874 1348.32 C 587.74 1358.04 576.765 1366.19 564.88 1379.98 C 539.596 1409.71 526.426 1447.86 527.992 1486.86 C 528.486 1499.2 531.249 1513.02 532.159 1525.91 C 527.33 1528.65 522.399 1530.4 517.239 1532.44 C 513.941 1533.69 509.083 1535.81 505.723 1534.29 C 495.977 1529.88 487.951 1509.28 484.745 1499.92 C 467.632 1449.96 474.313 1409.41 496.227 1363.3 C 518.588 1353.26 536.586 1350 560.699 1347.4 z"/>
    <path transform="translate(0,0)" fill="rgb(33,51,151)" d="M 473.306 1375.09 C 473.513 1376.48 465.641 1397.59 464.571 1401.66 C 453.835 1442.53 455.676 1486.25 475.448 1524.15 C 481.205 1535.18 489.151 1543.03 495.248 1553.6 C 485.028 1580.61 479.174 1578.33 457.651 1561.97 C 424.732 1533.21 401.868 1484.52 408.754 1439.91 C 412.365 1416.52 454.087 1387.05 473.306 1375.09 z"/>
    <path transform="translate(0,0)" fill="rgb(15,19,86)" d="M 392.524 1458.59 C 394.399 1463.19 394.653 1484.71 396.761 1492.47 C 410.952 1544.69 429.947 1566.5 473.917 1592.96 C 471.574 1600.04 461.161 1622.85 456.306 1628.71 L 453.808 1628.88 C 418.202 1619.88 395.213 1601.24 372.204 1573.1 C 367.217 1532.46 374.394 1495.04 392.524 1458.59 z"/>
    <path transform="translate(0,0)" fill="rgb(15,19,86)" d="M 492.664 1601.75 C 495.913 1605.69 498.253 1626.46 500.443 1633.2 C 508.029 1656.53 517.076 1678.29 530.874 1698.67 C 543.493 1717.31 558.869 1731.45 573.986 1747.74 C 564.736 1747.21 558.359 1746.79 549.281 1745.3 C 522.303 1741.01 491.974 1731.41 469.879 1714.82 C 462.932 1680.75 463.348 1626.34 492.664 1601.75 z"/>
    <path transform="translate(0,0)" fill="rgb(15,19,86)" d="M 377.739 1602.66 C 407.454 1627.14 415.17 1632.78 451.728 1643.65 C 449.148 1670.76 449.592 1681.06 451.553 1707.76 L 451.02 1708.82 L 449.037 1708.6 C 414.413 1684.28 388.622 1643.23 377.739 1602.66 z"/>
  </g>
  <text x="259" y="220" fill="#0f1356" font-family="'Trebuchet MS', 'Trebuchet', 'Segoe UI', sans-serif" font-size="234" font-weight="700">Roly</text>
</svg>
